# xmcd
#
# Track frame offsets:
#	180
#	16856
#	27862
#	42928
#	58098
#	75063
#	84948
#	98311
#	114844
#	128259
#
# Disc length: 1974 seconds
#
# Revision: 0
# Processed by: cddbd v1.5.1PL0 Copyright (c) Steve Scherf et al.
# Submitted via: dBpowerAMP V4.0
#
DISCID=5507b40a
DTITLE=Jorge Negrete - Jorge Negrete y las 3 Calaveras
DYEAR=1970
DGENRE=Undefined
TTITLE0=Mi preferida
TTITLE1=La nortena
TTITLE2=Bonita Guadalajara
TTITLE3=Tequila con limon
TTITLE4=Peregrina
TTITLE5=Alma llanera
TTITLE6=Y cantar sin tu amor
TTITLE7=Aunque me cueste la vida
TTITLE8=El abandonado
TTITLE9=Ojitos tapatios
EXTD=Jorge Negrete y las Tres Calaveras musica Ranchera Mexicana
EXTT0=
EXTT1=
EXTT2=
EXTT3=
EXTT4=
EXTT5=
EXTT6=
EXTT7=
EXTT8=
EXTT9=
PLAYORDER=
